<svg xmlns="http://www.w3.org/2000/svg" width="39" height="39" viewBox="0 0 512 512" fill="none">
  <path d="M449.264 424.168h48.85c8.802 0 15.382-8.303 13.59-17.151l-18.065-89.196h-55.142z" fill="white" stroke="white" stroke-width="0.5"/>
  <path d="M151.803 424.168l5.383-106.347h-54.676l-10.767 106.347z" fill="white" stroke="white" stroke-width="0.5"/>
  <path d="M331.58 424.168l-6.281-106.347h-54.874v106.347z" fill="white" stroke="white" stroke-width="0.5"/>
  <path d="M181.064 424.168h60.139v-106.347h-54.755z" fill="white" stroke="white" stroke-width="0.5"/>
  <path d="M475.325 221.547h-347.797c-17.739 0-32.119-14.754-32.119-32.953 0-18.199 14.38-32.953 32.119-32.953h257.57c18.251 0 33.047-15.18 33.047-33.905 0-18.725-14.795-33.905-33.047-33.905h-268.736c-53.539 0-96.942 44.529-96.942 99.458v100.531h472.787v-48.942c0-9.571-7.558-17.331-16.882-17.331z" fill="white" stroke="white" stroke-width="0.5"/>
  <path d="M360.856 424.168h59.028l-10.767-106.347h-54.542z" fill="white" stroke="white" stroke-width="0.5"/>
  <path d="M13.885 424.168h48.478l10.767-106.347h-55.098l-17.747 89.247c-1.756 8.833 4.819 17.1 13.6 17.1z" fill="white" stroke="white" stroke-width="0.5"/>
</svg>
