<svg xmlns="http://www.w3.org/2000/svg" width="39" height="39" viewBox="0 0 64 64" fill="none">
  <g id="Outline">
    <g>
      <path d="M51,32c.55273,0,1-.44775,1-1V10c0-1.6543-1.3457-3-3-3H15c-1.6543,0-3,1.3457-3,3v44c0,1.6543,1.3457,3,3,3h34c1.6543,0,3-1.3457,3-3v-19c0-.55225-.44727-1-1-1s-1,.44775-1,1v19c0,.55127-.44824,1-1,1H15c-.55176,0-1-.44873-1-1V10c0-.55127.44824-1,1-1h34c.55176,0,1,.44873,1,1v21c0,.55225.44727,1,1,1Z" fill="white" stroke="white" stroke-width="0.5"/>
      <path d="M17,40c-.55273,0-1,.44775-1,1v8c0,.55225.44727,1,1,1,1.10254,0,2,.89697,2,2,0,.55225.44727,1,1,1h24c.55273,0,1-.44775,1-1,0-1.10303.89746-2,2-2,.55273,0,1-.44775,1-1V15c0-.55225-.44727-1-1-1-1.10254,0-2-.89697-2-2,0-.55225-.44727-1-1-1h-24c-.55273,0-1,.44775-1,1,0,1.10303-.89746,2-2,2-.55273,0-1,.44775-1,1v22c0,.55225.44727,1,1,1s1-.44775,1-1V15.87354c1.40332-.36279,2.51074-1.46973,2.87305-2.87354h22.25391c.3623,1.40381,1.46973,2.51074,2.87305,2.87354v32.25293c-1.40332.36279-2.51074,1.46973-2.87305,2.87354h-22.25391c-.3623-1.40381-1.46973-2.51074-2.87305-2.87354v-7.12646c0-.55225-.44727-1-1-1Z" fill="white" stroke="white" stroke-width="0.5"/>
      <path d="M44,43.44824c0-.82861-.50391-1.54346-1.24707-1.729.35547-.74854.20703-1.61084-.37891-2.19678-.58008-.5791-1.43066-.73291-2.12305-.38965-.28906-.75293-.99121-1.23633-1.80273-1.23633-.8291,0-1.54395.50439-1.72852,1.24707-.74707-.35498-1.61133-.20703-2.19727.37891s-.73438,1.44824-.34082,2.10449c-.78125.27783-1.28516.99268-1.28516,1.82129s.50391,1.54346,1.24707,1.729c-.35547.74854-.20703,1.61084.37891,2.19678.58594.58643,1.44824.7334,2.10449.34082.27734.78076.99219,1.28516,1.82129,1.28516s1.54395-.50439,1.72852-1.24707c.74902.35596,1.61133.20703,2.19727-.37891s.73438-1.44824.34082-2.10449c.78125-.27783,1.28516-.99268,1.28516-1.82129ZM40.90625,44.46582c-.1875.45215-.19531.95898-.02539,1.41504-.4541-.16846-.96094-.16309-1.41309.02539-.45215.18701-.81641.53955-1.01953.98291-.20215-.44238-.56641-.79541-1.01953-.98291-.23633-.09766-.4873-.14648-.73828-.14648-.22852,0-.45801.04053-.6748.12109.16992-.45557.16211-.9624-.02539-1.41504-.1875-.45166-.54004-.81494-.98242-1.01758.44141-.20215.79492-.56543.98242-1.01758s.19531-.95898.02539-1.41504c.4541.16846.96094.16309,1.41309-.02539.45215-.18701.81641-.53955,1.01953-.98291.20215.44238.56641.79541,1.01953.98291.45117.18604.95801.19385,1.41309.02539-.16992.45557-.16211.9624.02539,1.41504.1875.45166.54004.81494.98242,1.01758-.44141.20215-.79492.56543-.98242,1.01758Z" fill="white" stroke="white" stroke-width="0.5"/>
      <path d="M42.20001,22l1.63-2.45001c.20996-.29999.22998-.70001.04999-1.02002-.16998-.32996-.51001-.52997-.88-.52997h-5v-2c0-.54999-.45001-1-1-1h-10c-.54999,0-1,.45001-1,1v2h-5c-.37,0-.71002.20001-.88.52997-.17999.32001-.15997.72003.04999,1.02002l1.63,2.45001-1.63,2.45001c-.20996.29999-.22998.69995-.04999,1.01996.16998.33002.51001.53003.88.53003h7c.54999,0,1-.45001,1-1v-2h6v2c0,.54999.45001,1,1,1h7c.37,0,.71002-.20001.88-.53003.17999-.32001.15997-.71997-.04999-1.01996l-1.63-2.45001ZM27,24h-4.13l.96002-1.45001c.22998-.33002.22998-.77002,0-1.09998l-.96002-1.45001h3.13v2c0,.54999.45001,1,1,1v1ZM36,21h-8v-4h8v4ZM40.16998,22.54999l.96002,1.45001h-4.13v-1c.54999,0,1-.45001,1-1v-2h3.13l-.96002,1.45001c-.22998.32996-.22998.76996,0,1.09998Z" fill="white" stroke="white" stroke-width="0.5"/>
      <path d="M21,30h22c.55273,0,1-.44775,1-1s-.44727-1-1-1h-22c-.55273,0-1,.44775-1,1s.44727,1,1,1Z" fill="white" stroke="white" stroke-width="0.5"/>
      <path d="M42,33c0-.55225-.44727-1-1-1h-18c-.55273,0-1,.44775-1,1s.44727,1,1,1h18c.55273,0,1-.44775,1-1Z" fill="white" stroke="white" stroke-width="0.5"/>
    </g>
  </g>
</svg>
