<svg xmlns="http://www.w3.org/2000/svg" width="70" height="70" viewBox="-5 -5 50 50">
  <title>Star</title>
  <defs>
    <linearGradient id="starGradient" x1="19.5" y1="0" x2="19.5" y2="41" gradientUnits="userSpaceOnUse">
      <stop offset="0%" stop-color="#941D20" />
      <stop offset="90%" stop-color="#941D20" />
      <stop offset="99.9%" stop-color="#FFFFFF" stop-opacity="0" />
    </linearGradient>
  </defs>
  <path
    d="M22.516,28.813a2.825,2.825,0,0,1-1.667-.552L15.5,24.372a.831.831,0,0,0-.984,0l-5.354,3.89a2.838,2.838,0,0,1-4.368-3.173l2.045-6.294a.838.838,0,0,0-.3-.937L1.176,13.968A2.838,2.838,0,0,1,2.845,8.834H9.462a.837.837,0,0,0,.8-.579L12.3,1.961a2.838,2.838,0,0,1,5.4,0l2.045,6.294a.836.836,0,0,0,.8.579h6.617a2.838,2.838,0,0,1,1.669,5.134l-5.355,3.889a.837.837,0,0,0-.3.937l2.045,6.294a2.8,2.8,0,0,1-1.032,3.173A2.829,2.829,0,0,1,22.516,28.813ZM15,22.209a2.83,2.83,0,0,1,1.668.545l5.353,3.889a.838.838,0,0,0,1.29-.937l-2.045-6.293A2.834,2.834,0,0,1,22.3,16.24l5.354-3.89a.838.838,0,0,0-.493-1.516H20.544a2.829,2.829,0,0,1-2.7-1.961L15.8,2.579h0a.838.838,0,0,0-1.594,0L12.161,8.873a2.831,2.831,0,0,1-2.7,1.961H2.845a.838.838,0,0,0-.494,1.516l5.355,3.889a2.834,2.834,0,0,1,1.03,3.174L6.691,25.706a.838.838,0,0,0,1.29.937l5.354-3.89A2.836,2.836,0,0,1,15,22.209Z"
    fill="url(#starGradient)"
  />
</svg>
