<svg xmlns="http://www.w3.org/2000/svg" width="300" height="300" viewBox="0 -1500 2666 3000" fill="yellow">
  <style type="text/css">
      .st0 { fill: yellow; stroke: yellow; stroke-width: 0.5; fill-rule: nonzero; }
  </style>
  <g transform="scale(0.1)">
    <path d="m 10354,11531 c 36,0 69,11 101,33 71,14 117,58 137,131 l 3,33 c 0,34 -10,64 -30,92 -32,48 -83,71 -155,71 -72,0 -131,-28 -179,-83 -28,-34 -42,-70 -42,-110 0,-48 17,-88 51,-122 36,-30 74,-45 114,-45" class="st0"/>
    <path d="m 16954,10257 c 91,243 177,392 259,447 l 5,-11 c 82,-187 -25,-414 -320,-681 8,77 27,158 56,245 z M 5947,8453 c 0,-93 -17,-184 -51,-274 -99,-240 -290,-454 -573,-643 -283,-188 -608,-343 -974,-464 -522,-171 -1002,-256 -1440,-256 -200,0 -377,20 -530,60 -175,52 -262,124 -262,217 0,14 2,26 6,36 54,238 226,504 518,797 292,294 651,593 1079,897 427,304 869,593 1326,864 600,-432 901,-843 901,-1234 z m 5806,3840 c 161,451 295,736 404,855 26,28 74,15 81,-23 v -1 c 41,-166 -20,-423 -87,-658 -67,-231 -314,-799 -783,-1719 85,553 213,1068 385,1546 z m 6874,-1576 c -17,40 -48,70 -91,90 -45,15 -88,13 -128,-4 -38,-17 -67,-47 -87,-90 -275,-674 -574,-1081 -896,-1222 -105,-46 -200,-53 -284,-20 -71,28 -128,80 -173,158 239,182 417,389 534,622 97,189 102,383 16,581 -29,67 -70,120 -123,159 -53,39 -104,58 -155,57 -51,0 -99,-11 -144,-30 -122,-53 -233,-178 -333,-376 -177,-349 -235,-661 -176,-935 -618,-640 -1381,-1140 -2112,-1383 -441,-146 -865,-198 -1259,-154 -436,48 -838,215 -1195,496 -528,415 -662,1007 -695,1260 -6,59 -11,115 -12,148 761,1166 1132,1976 1248,2689 24,150 26,282 1,419 -42,226 -154,345 -335,356 -16,1 -32,0 -48,-3 -62,-12 -134,-49 -215,-112 -123,-110 -258,-342 -406,-699 -148,-356 -276,-765 -386,-1226 -98,-414 -155,-816 -171,-1204 -161,-152 -316,-288 -467,-407 -219,-173 -377,-271 -475,-295 -2,18 -3,39 -3,62 0,109 29,275 86,497 69,272 166,568 289,890 8,20 12,40 12,60 0,61 -27,109 -80,143 -28,16 -56,24 -83,24 -52,0 -94,-20 -128,-60 l -246,-285 c 0,0 -1,0 -1,-1 -10,0 -88,-77 -234,-232 -146,-155 -343,-424 -591,-806 -91,-135 -157,-218 -196,-250 -4,26 -6,55 -6,86 0,103 24,240 71,411 61,184 92,352 92,503 0,137 -50,234 -149,292 -36,16 -70,24 -104,24 -99,0 -200,-64 -303,-190 -62,-75 -138,-186 -229,-330 l 36,262 c 18,91 27,170 27,235 0,48 -8,98 -25,152 -17,54 -58,95 -123,125 -22,12 -50,18 -83,18 -131,0 -334,-183 -610,-548 71,218 107,336 107,354 0,75 -38,127 -113,155 -7,2 -14,4 -21,5 -12,3 -26,5 -39,5 -121,0 -400,-101 -838,-302 -437,-201 -947,-470 -1528,-805 -284,192 -635,390 -1053,592 -1170,575 -1756,1153 -1756,1735 4,268 125,527 363,777 220,230 496,438 827,623 331,185 675,341 1033,466 641,220 1165,330 1574,330 139,0 228,-16 268,-48 0,-56 -101,-169 -304,-339 -40,-34 -60,-76 -60,-128 0,-38 12,-72 36,-104 36,-40 80,-60 134,-60 36,0 69,12 101,36 123,93 232,203 327,330 63,85 95,173 95,262 0,254 -209,381 -628,381 -369,0 -837,-88 -1404,-265 -401,-125 -795,-289 -1183,-491 -388,-202 -719,-437 -992,-704 -274,-267 -441,-561 -503,-882 -12,-67 -18,-134 -18,-199 0,-714 649,-1387 1946,-2017 333,-161 627,-321 881,-482 -464,-278 -909,-574 -1335,-888 -426,-314 -783,-628 -1073,-940 -290,-312 -465,-606 -527,-879 -6,-24 -9,-53 -9,-86 0,-32 4,-77 13,-137 9,-60 50,-130 123,-211 157,-177 472,-265 946,-265 286,0 600,34 943,101 343,67 678,168 1006,301 327,133 615,297 863,492 248,195 423,421 524,677 48,115 71,243 71,384 0,38 -5,113 -15,226 -10,113 -85,279 -226,498 -141,219 -369,452 -684,698 504,290 944,525 1320,705 204,98 369,171 493,219 -270,-814 -405,-1229 -405,-1245 0,-69 33,-120 98,-152 22,-10 45,-15 68,-15 60,0 107,27 143,80 343,563 642,994 896,1291 v -9 c -44,-284 -65,-495 -65,-634 0,-22 2,-70 7,-146 5,-75 50,-126 135,-152 24,-8 48,-12 71,-12 54,0 110,30 168,89 58,60 135,167 231,321 81,131 144,225 187,283 -10,-67 -32,-154 -65,-259 -58,-169 -86,-336 -86,-503 0,-67 9,-145 27,-234 18,-88 72,-156 164,-204 38,-18 75,-27 113,-27 75,0 147,28 214,83 103,85 201,204 295,357 208,320 376,552 503,698 -91,-307 -137,-553 -137,-736 0,-230 74,-364 223,-402 22,-6 45,-9 68,-9 139,8 301,73 485,196 168,112 332,239 492,381 49,-327 219,-968 817,-1437 493,-387 1064,-583 1683,-583 349,0 713,62 1088,186 743,246 1516,740 2154,1372 74,-95 170,-166 290,-214 155,-62 334,-52 539,30 116,51 236,133 358,247 122,114 244,265 364,454 120,189 234,421 343,698 14,50 13,92 -3,130" class="st0"/>
    <path d="m 13570.9,10662.9 5,-1 c 107,-18 208,55 226,162 l 157,949 c 18,107 -55,208 -162,226 l -5,1 c -107,18 -208,-55 -226,-162 l -157,-949 c -18,-106 55,-208 162,-226" class="st0"/>
    <path d="m 14979.3,10679.8 5,-1 c 107.2,-16.8 207.4,57.3 224.2,164.5 l 107.2,699.5 c 16.8,107.1 -57.3,207.3 -164.5,224.2 l -5,0.9 c -107.2,16.8 -207.4,-57.3 -224.2,-164.5 l -107.2,-699.4 c -16.8,-106.2 57.3,-207.4 164.5,-224.2" class="st0"/>
  </g>
</svg>